<?xml version="1.0" standalone="no"?>
<!DOCTYPE svg PUBLIC "-//W3C//DTD SVG 20010904//EN"
 "http://www.w3.org/TR/2001/REC-SVG-20010904/DTD/svg10.dtd">
<svg version="1.0" xmlns="http://www.w3.org/2000/svg"
 width="1024.000000pt" height="1024.000000pt" viewBox="0 0 1024.000000 1024.000000"
 preserveAspectRatio="xMidYMid meet">

<g transform="translate(0.000000,1024.000000) scale(0.100000,-0.100000)"
fill="#000000" stroke="none">
<path d="M4812 7969 c-94 -11 -316 -61 -416 -94 -381 -125 -740 -342 -974
-590 -89 -94 -202 -239 -202 -260 0 -11 120 -61 125 -52 31 54 122 164 195
237 281 279 639 478 1047 579 203 51 252 56 503 56 256 0 338 -11 555 -74 329
-94 662 -294 913 -549 187 -189 320 -378 446 -632 l71 -146 58 25 c33 15 57
32 57 41 0 32 -155 322 -244 455 -241 360 -524 609 -911 801 -197 98 -421 165
-660 199 -110 16 -441 18 -563 4z"/>
<path d="M2990 7654 c-13 -34 -11 -141 3 -181 20 -55 73 -120 119 -147 53 -31
144 -47 136 -25 -3 8 -13 12 -23 11 -16 -3 -17 -1 -6 12 11 13 1 30 -64 113
-42 54 -80 98 -85 98 -5 0 -12 4 -17 9 -4 5 -3 6 4 3 6 -4 13 -2 15 5 6 16 60
-23 88 -63 12 -16 25 -27 30 -24 4 3 7 -1 7 -8 -2 -18 64 -147 73 -142 16 10
32 96 26 136 -8 53 -34 102 -48 93 -6 -4 -8 -3 -4 4 20 34 -132 132 -206 132
-32 0 -40 -4 -48 -26z m179 -30 c14 -12 -19 -1 -35 12 -18 14 -18 14 6 3 14
-6 27 -13 29 -15z m91 -262 c5 -20 5 -30 -1 -27 -5 4 -9 15 -9 25 0 10 -4 22
-10 25 -5 3 -10 11 -10 18 0 20 20 -7 30 -41z m-76 20 c3 -5 -1 -9 -9 -9 -8 0
-12 4 -9 9 3 4 7 8 9 8 2 0 6 -4 9 -8z"/>
<path d="M2380 7642 c0 -5 7 -15 14 -22 26 -21 39 -82 40 -195 2 -91 6 -117
23 -151 42 -79 137 -145 232 -160 42 -7 43 -6 36 17 -7 23 -51 104 -90 163
-16 24 -17 28 -3 20 26 -15 88 -94 114 -146 13 -26 28 -48 34 -48 12 0 25 82
25 160 -1 170 -93 275 -257 295 -34 4 -71 16 -92 30 -52 35 -76 47 -76 37z"/>
<path d="M5086 7620 c-3 -8 -15 -41 -25 -72 -28 -82 -73 -142 -124 -167 -24
-12 -51 -21 -60 -21 -30 0 -18 -20 20 -37 22 -9 52 -13 75 -10 21 3 38 2 38
-1 0 -4 -14 -31 -30 -59 -34 -60 -106 -121 -174 -149 -25 -11 -46 -22 -46 -26
0 -10 53 -19 115 -21 49 -1 55 -3 55 -22 0 -27 -46 -99 -91 -144 -47 -48 -140
-106 -208 -131 -31 -11 -63 -23 -71 -27 -10 -4 -6 -8 15 -15 60 -18 243 11
329 53 22 10 41 17 43 15 2 -2 -25 -31 -59 -65 -76 -75 -173 -142 -253 -177
l-60 -25 90 4 c61 3 113 12 163 30 39 14 72 21 72 16 0 -5 -39 -50 -87 -100
-71 -74 -101 -97 -171 -132 -81 -40 -84 -42 -54 -48 35 -7 121 4 151 21 12 6
21 7 21 3 -1 -13 -119 -97 -200 -143 -92 -51 -99 -58 -80 -71 19 -12 109 -4
220 21 46 10 87 16 90 14 12 -13 -133 -114 -202 -140 -23 -9 -49 -23 -57 -29
-38 -36 103 -49 209 -20 30 8 56 13 58 11 8 -9 -93 -60 -180 -91 -151 -53
-134 -56 -142 22 -4 38 -22 107 -40 154 -150 397 -501 675 -1006 797 -158 38
-337 68 -347 58 -4 -4 -8 -146 -8 -314 0 -340 5 -384 70 -579 113 -340 358
-629 650 -767 143 -68 414 -141 438 -117 21 21 -37 273 -85 365 -27 52 -195
104 -405 127 -62 6 -113 15 -113 19 0 11 83 20 196 20 73 0 120 -5 165 -20 35
-10 65 -17 68 -14 6 6 -86 185 -134 260 -49 77 -50 77 -425 148 -102 19 -164
36 -157 42 6 6 397 -23 446 -32 l34 -7 -27 50 c-66 120 -197 270 -361 412 -50
42 -50 43 -10 20 22 -12 54 -32 70 -43 17 -12 32 -21 35 -21 17 -2 53 -30 61
-48 8 -19 9 -17 4 8 -3 17 -21 63 -40 103 -19 40 -30 70 -24 66 15 -9 91 -127
124 -194 29 -57 154 -232 176 -245 9 -6 11 32 7 179 -3 102 -4 186 -2 186 8 0
27 -123 40 -260 17 -178 19 -184 133 -364 44 -71 81 -134 82 -140 0 -6 12 30
25 79 14 52 27 134 31 193 3 56 9 102 13 102 9 0 20 -87 20 -160 0 -30 -7
-105 -16 -167 l-16 -112 40 -88 c23 -48 46 -101 51 -116 6 -16 15 -26 20 -23
5 4 24 49 41 102 18 52 34 94 36 92 2 -2 -6 -49 -18 -103 -23 -110 -27 -194
-15 -269 l9 -49 138 140 c166 169 403 382 483 434 71 46 140 63 224 56 110
-11 158 -39 395 -239 145 -121 371 -344 458 -452 l55 -68 12 112 c34 325 125
561 285 735 l48 53 -52 30 c-50 28 -133 100 -125 108 2 2 19 -1 38 -6 40 -12
109 -13 109 -2 0 4 -14 13 -30 20 -37 17 -180 158 -180 179 0 12 10 13 58 8
31 -3 68 -8 82 -11 14 -2 34 2 45 10 18 13 16 15 -31 39 -27 14 -69 43 -95 65
-44 40 -106 119 -98 126 2 3 29 -2 59 -10 109 -28 180 -12 102 23 -59 27 -124
82 -162 138 -17 24 -30 46 -30 49 0 2 13 -2 29 -10 39 -19 120 -28 150 -17 22
9 21 10 -23 23 -57 16 -116 70 -151 139 -14 28 -25 52 -25 55 0 2 17 7 38 10
77 14 79 16 27 45 -26 14 -59 41 -73 59 l-25 32 42 0 42 0 -36 31 c-43 38 -63
74 -86 154 l-16 60 -13 -45 c-19 -72 -59 -147 -91 -175 l-31 -25 31 0 c39 0
39 -9 -1 -47 -37 -35 -88 -63 -115 -63 -13 0 -14 -3 -5 -12 6 -6 41 -12 77
-12 36 -1 65 -2 65 -4 0 -1 -9 -19 -19 -40 -36 -71 -99 -130 -179 -170 l-77
-37 68 -3 c56 -2 78 2 124 23 31 14 58 23 60 21 11 -10 -132 -146 -184 -175
l-58 -32 60 6 c34 3 87 18 123 35 l63 29 -20 -27 c-33 -46 -123 -128 -176
-161 l-50 -31 50 0 c30 0 66 8 88 19 20 10 37 15 37 10 0 -15 -80 -87 -142
-128 -33 -21 -55 -42 -49 -45 14 -9 71 2 140 26 30 10 56 16 58 14 7 -7 -189
-186 -204 -186 -35 0 -257 169 -242 185 3 2 34 0 69 -6 35 -5 82 -7 105 -4 81
13 82 15 18 49 -98 53 -216 147 -201 161 2 3 27 -1 54 -9 67 -19 154 -29 154
-17 0 5 -19 16 -42 26 -74 29 -258 162 -258 185 0 5 33 -3 73 -16 48 -17 102
-27 162 -30 l90 -5 -61 34 c-34 18 -81 48 -105 66 -48 34 -179 161 -179 172 0
4 19 0 43 -8 68 -25 175 -28 222 -8 l40 17 -51 18 c-107 37 -218 129 -263 219
-31 59 -28 71 17 71 41 0 152 26 165 39 5 5 -11 11 -34 15 -62 10 -134 53
-186 111 l-46 50 39 3 c64 5 73 11 38 28 -43 21 -88 69 -123 134 -20 36 -32
49 -35 40z m726 -1507 c-11 -16 -31 -39 -45 -52 -23 -21 -29 -22 -62 -11 -20
7 -33 16 -28 20 7 7 142 69 151 70 2 0 -6 -12 -16 -27z"/>
<path d="M6860 7595 c-30 -32 -39 -128 -20 -214 12 -58 76 -199 108 -240 19
-23 19 -20 26 200 7 209 6 224 -12 248 -27 37 -71 39 -102 6z"/>
<path d="M4197 7466 c-159 -44 -239 -226 -164 -372 86 -167 298 -204 424 -72
100 104 98 285 -4 380 -68 63 -168 89 -256 64z"/>
<path d="M7261 7362 c-56 -57 -104 -145 -125 -228 -17 -65 -20 -205 -6 -239
l8 -20 7 20 c25 68 52 115 138 242 106 158 128 210 102 249 -27 41 -70 33
-124 -24z"/>
<path d="M7482 7005 c-47 -20 -165 -145 -196 -206 -14 -29 -26 -66 -26 -81 l0
-29 33 17 c70 36 226 145 256 179 36 42 42 92 13 118 -22 20 -37 21 -80 2z"/>
<path d="M2250 7004 c-14 -3 -40 -7 -59 -10 l-33 -5 7 -67 c26 -260 141 -412
351 -466 66 -17 189 -22 198 -7 3 4 -5 18 -18 30 -16 15 -25 18 -28 10 -5 -16
-48 -2 -48 17 0 8 -5 14 -12 14 -6 0 -9 3 -6 6 10 9 49 -16 43 -27 -4 -5 -1
-9 4 -9 6 0 11 4 11 8 0 13 -46 53 -53 47 -4 -3 -5 -2 -2 2 9 12 -16 32 -33
26 -12 -3 -13 -2 -4 4 17 12 -21 49 -39 37 -7 -4 -10 -3 -5 4 6 11 -10 27 -29
27 -5 0 -10 6 -10 13 0 19 -65 73 -79 65 -6 -3 -7 -2 -3 2 4 5 -23 39 -60 77
-37 37 -64 71 -60 74 4 4 7 2 7 -4 0 -15 69 -44 83 -35 6 4 7 1 2 -7 -6 -10
-4 -12 9 -7 9 4 15 3 12 -2 -3 -5 11 -20 32 -33 63 -42 130 -102 177 -157 25
-29 45 -48 45 -41 0 6 5 8 10 5 6 -4 7 -11 4 -17 -7 -11 74 -98 92 -98 15 0
20 15 29 74 9 58 -2 139 -17 130 -7 -5 -8 -2 -4 5 9 14 -9 63 -37 104 -16 24
-21 26 -35 15 -15 -12 -16 -11 -4 4 15 19 7 42 -10 32 -6 -4 -8 -2 -4 4 9 14
-32 42 -53 35 -12 -4 -13 -3 -3 5 10 7 3 16 -31 36 -50 29 -62 32 -51 14 4 -7
3 -8 -5 -4 -6 4 -9 11 -6 16 14 23 -205 65 -275 54z m-63 -96 c-3 -8 -6 -5 -6
6 -1 11 2 17 5 13 3 -3 4 -12 1 -19z m556 -161 c3 -8 -1 -14 -8 -14 -7 0 -11
6 -8 14 3 7 6 13 8 13 2 0 5 -6 8 -13z m-223 -7 c0 -5 -2 -10 -4 -10 -3 0 -8
5 -11 10 -3 6 -1 10 4 10 6 0 11 -4 11 -10z m111 -117 c13 -16 12 -17 -3 -4
-10 7 -18 15 -18 17 0 8 8 3 21 -13z m149 -20 c-1 -31 -3 -35 -11 -20 -6 9 -7
26 -4 37 10 30 15 24 15 -17z m-74 -58 c9 -8 11 -15 6 -15 -5 0 -15 7 -22 15
-7 8 -9 15 -6 15 4 0 14 -7 22 -15z m61 -17 c-3 -8 -6 -5 -6 6 -1 11 2 17 5
13 3 -3 4 -12 1 -19z m-166 -76 c-18 -2 -37 0 -42 5 -5 5 11 6 34 3 41 -4 41
-5 8 -8z m79 14 c0 -2 -9 -6 -20 -9 -11 -3 -20 -1 -20 4 0 5 9 9 20 9 11 0 20
-2 20 -4z m25 -6 c3 -5 1 -10 -4 -10 -6 0 -11 5 -11 10 0 6 2 10 4 10 3 0 8
-4 11 -10z"/>
<path d="M6416 6921 c-12 -13 -16 -27 -11 -43 17 -54 152 -163 310 -248 44
-23 92 -51 107 -61 14 -11 29 -19 32 -19 25 0 -27 114 -88 191 -76 97 -235
199 -310 199 -13 0 -31 -9 -40 -19z"/>
<path d="M7811 6709 c-90 -104 -234 -185 -576 -322 -399 -160 -540 -241 -701
-401 -231 -232 -355 -526 -371 -882 l-6 -131 48 -29 c43 -25 61 -29 164 -34
64 -3 117 -5 119 -4 2 1 -1 11 -7 23 -6 11 -23 69 -38 128 -23 93 -27 129 -27
258 0 83 4 158 9 167 7 11 10 -21 11 -105 1 -85 8 -148 22 -208 21 -86 76
-236 93 -253 5 -6 25 25 49 77 22 48 59 119 81 158 46 81 46 71 8 244 -29 135
-23 301 16 422 14 45 30 85 35 88 6 4 5 -5 -1 -22 -17 -44 -27 -220 -18 -302
8 -68 38 -180 61 -224 8 -15 18 -4 65 70 86 136 85 131 73 209 -20 139 -5 288
40 407 23 60 41 74 21 15 -22 -62 -25 -198 -6 -302 9 -53 20 -98 24 -101 11
-6 182 212 192 244 4 14 15 78 23 141 8 64 20 131 28 149 12 30 13 22 13 -88
1 -71 5 -125 11 -131 15 -15 195 195 257 300 27 45 51 80 53 77 2 -2 -5 -30
-17 -61 -12 -31 -19 -59 -16 -63 12 -11 272 110 321 149 l28 24 -11 139 c-13
161 -21 215 -30 214 -3 0 -21 -18 -40 -40z"/>
<path d="M2903 6550 c-55 -113 -106 -253 -121 -336 l-9 -51 64 -25 63 -25 11
41 c6 22 21 79 35 126 25 87 28 148 15 300 l-6 75 -52 -105z"/>
<path d="M1853 6539 c64 -88 68 -177 13 -382 -54 -206 -49 -318 21 -467 28
-59 54 -93 122 -160 113 -112 205 -161 315 -168 l75 -5 -46 49 c-115 123 -194
260 -253 437 -17 54 -30 100 -28 102 2 2 53 -75 113 -171 119 -190 231 -333
313 -402 29 -24 52 -42 52 -39 0 3 -18 58 -39 123 -49 145 -66 265 -57 399 7
113 -4 198 -34 259 -45 94 -143 176 -250 211 -97 31 -147 63 -222 141 -77 80
-129 120 -95 73z"/>
<path d="M6503 6465 c-59 -25 -46 -82 26 -116 41 -19 58 -21 156 -17 125 5
197 27 175 53 -21 25 -112 62 -192 79 -93 19 -123 20 -165 1z"/>
<path d="M7851 6289 c-18 -11 -104 -52 -190 -91 -86 -38 -169 -82 -184 -97
-36 -32 -142 -190 -134 -198 8 -7 238 60 337 97 41 16 107 49 145 73 l70 42 3
98 c1 53 -1 97 -5 97 -4 0 -23 -9 -42 -21z"/>
<path d="M2521 6195 c37 -73 44 -154 30 -328 -15 -177 -6 -250 48 -362 71
-148 162 -238 280 -275 105 -33 104 -35 61 78 -21 53 -50 153 -64 222 -31 145
-57 228 -90 287 -33 57 -7 45 40 -18 56 -76 81 -137 114 -274 39 -166 108
-315 144 -315 29 0 105 232 106 318 0 70 -33 190 -77 282 -77 160 -151 217
-361 281 -49 15 -86 34 -115 59 -50 44 -127 100 -137 100 -4 0 6 -25 21 -55z"/>
<path d="M7818 5988 c-43 -21 -170 -70 -283 -108 -218 -74 -265 -98 -311 -154
-38 -46 -147 -226 -141 -232 8 -8 424 102 539 142 56 20 132 51 169 70 60 30
69 38 78 71 15 58 33 196 29 224 l-3 24 -77 -37z"/>
<path d="M5045 5708 c-45 -16 -78 -42 -217 -166 -125 -113 -144 -135 -132
-153 3 -5 191 -9 445 -9 380 0 439 2 439 15 0 15 -192 190 -287 261 -82 61
-169 80 -248 52z"/>
<path d="M7760 5614 c-81 -34 -250 -89 -452 -144 -298 -83 -330 -104 -425
-287 -45 -85 -133 -278 -133 -291 0 -6 145 7 210 19 225 41 506 178 652 317
90 86 191 266 214 382 8 35 6 35 -66 4z"/>
<path d="M8395 5490 c-10 -11 -13 -20 -7 -20 7 0 12 -5 12 -11 0 -5 -5 -7 -12
-3 -7 4 -8 3 -4 -4 12 -21 29 -13 23 10 -4 12 -1 28 5 35 17 21 3 15 -17 -7z"/>
<path d="M8285 5410 c-22 -15 -55 -31 -74 -35 -25 -5 -31 -9 -21 -15 8 -5 -3
-6 -28 -3 -23 3 -42 1 -42 -4 0 -5 -16 -7 -35 -5 -19 2 -35 0 -35 -4 0 -5 -15
-10 -33 -10 -17 -1 -69 -16 -115 -34 -74 -28 -81 -34 -70 -49 11 -14 11 -14
-4 -3 -14 11 -21 11 -45 -2 -65 -35 -172 -113 -166 -121 5 -4 3 -5 -3 -2 -14
8 -56 -21 -49 -34 3 -5 0 -7 -7 -4 -16 6 -129 -81 -125 -97 1 -7 -5 -13 -13
-13 -8 0 -14 -6 -13 -13 2 -7 -4 -9 -15 -5 -13 5 -15 3 -5 -7 9 -9 39 -11 120
-8 118 6 254 35 231 50 -8 5 -4 6 13 3 17 -4 32 -1 41 9 9 8 19 12 24 8 5 -4
2 1 -5 11 -12 14 -11 17 3 17 9 0 16 -5 16 -12 0 -6 11 -1 25 12 28 26 26 41
-2 19 -16 -13 -17 -12 -4 4 8 10 21 15 29 12 22 -8 45 14 31 31 -9 11 -8 14 0
14 14 0 41 -25 41 -37 0 -5 9 -9 19 -10 26 -2 127 60 123 76 -1 7 1 10 6 7 5
-3 26 6 46 20 28 19 35 29 27 37 -15 15 -14 27 4 27 9 0 12 -6 9 -15 -8 -20 5
-19 27 1 17 15 18 15 16 -4 0 -11 -4 -19 -9 -16 -8 5 -29 -31 -23 -40 3 -3 2
-4 -2 -1 -10 7 -118 -98 -115 -112 2 -7 -2 -13 -8 -13 -6 0 -8 5 -5 10 10 16
-1 12 -59 -23 -31 -19 -53 -37 -49 -41 4 -4 0 -4 -10 0 -11 4 -19 0 -23 -10
-3 -9 -9 -14 -13 -12 -3 2 -17 -2 -31 -10 -14 -7 -19 -13 -12 -14 20 0 14 -16
-7 -16 -11 0 -17 4 -15 8 3 4 -19 -3 -48 -16 -29 -13 -82 -32 -117 -42 -54
-15 -61 -19 -42 -26 13 -4 28 -5 33 -1 7 3 8 1 4 -5 -4 -7 35 -32 101 -67 110
-56 150 -81 142 -89 -7 -7 -171 31 -253 58 -42 14 -145 53 -229 86 -157 61
-217 79 -217 64 0 -15 40 -35 53 -28 7 4 9 4 5 -1 -5 -5 17 -34 47 -66 83 -86
124 -181 138 -314 l11 -105 31 0 c99 1 279 64 389 138 132 88 293 259 280 298
-4 14 -3 16 4 5 8 -11 12 -10 21 6 5 11 7 24 3 28 -4 5 -2 5 5 1 15 -9 108
177 99 200 -3 8 -2 12 4 9 5 -3 14 14 20 37 23 88 22 84 11 68 -10 -13 -15 -8
-12 13 0 4 -4 7 -10 7 -6 0 -9 -7 -5 -15 4 -10 -1 -15 -14 -15 -17 0 -20 7
-20 40 0 33 -3 40 -20 40 -18 0 -20 7 -20 54 0 63 7 86 25 86 7 0 15 7 19 15
3 8 12 12 21 9 24 -10 17 -21 -17 -28 -29 -6 -31 -8 -15 -17 13 -8 24 -6 43 5
28 19 31 31 8 40 -13 5 -14 9 -4 21 18 21 11 18 -35 -15z m-48 -46 c-3 -3 -12
-4 -19 -1 -8 3 -5 6 6 6 11 1 17 -2 13 -5z m-99 -178 c-7 -8 -15 -12 -17 -11
-5 6 10 25 20 25 5 0 4 -6 -3 -14z m-454 -31 c-4 -8 -10 -15 -15 -15 -5 0 -9
-7 -9 -15 0 -8 -4 -15 -10 -15 -17 0 -11 22 12 41 26 23 29 24 22 4z m643 -17
c-3 -8 -6 -5 -6 6 -1 11 2 17 5 13 3 -3 4 -12 1 -19z m-127 8 c0 -2 -8 -10
-17 -17 -16 -13 -17 -12 -4 4 13 16 21 21 21 13z m-57 -40 c-10 -13 -20 -22
-22 -20 -4 4 29 44 36 44 2 0 -4 -11 -14 -24z m-108 -86 c-3 -5 -12 -10 -18
-10 -7 0 -6 4 3 10 19 12 23 12 15 0z"/>
<path d="M3323 5412 c-30 -19 -55 -106 -61 -209 -5 -114 2 -127 49 -77 45 49
96 67 202 73 l99 6 -60 42 c-33 23 -89 66 -124 95 -91 77 -93 78 -105 70z"/>
<path d="M8386 5376 c-4 -18 -12 -24 -26 -21 -17 3 -20 -1 -20 -38 1 -42 1
-42 16 -17 14 24 15 24 11 3 -3 -13 -2 -25 2 -27 8 -5 35 113 28 121 -3 2 -7
-7 -11 -21z"/>
<path d="M1940 5303 c33 -3 41 -7 30 -15 -12 -8 -11 -9 3 -4 10 3 28 6 40 7
43 2 -25 17 -73 16 l-45 0 45 -4z"/>
<path d="M1835 5290 c-13 -5 -14 -9 -5 -9 8 0 24 4 35 9 13 5 14 9 5 9 -8 0
-24 -4 -35 -9z"/>
<path d="M4565 5276 c-36 -17 -117 -100 -302 -311 -77 -88 -146 -165 -154
-172 -11 -9 -154 -13 -570 -15 -539 -3 -555 -4 -599 -24 -83 -39 -136 -113
-147 -205 l-6 -49 678 0 677 0 56 51 c157 140 376 250 628 315 99 26 125 29
284 29 193 0 281 -13 443 -66 176 -57 382 -173 516 -290 l44 -39 596 2 596 3
3 24 c2 13 -2 45 -9 70 -16 57 -96 140 -154 161 -32 11 -136 15 -502 17 l-463
4 -112 127 c-192 218 -319 350 -353 367 -29 13 -106 15 -577 15 -434 -1 -549
-3 -573 -14z"/>
<path d="M2510 5260 c15 -28 128 -123 205 -173 94 -60 213 -119 306 -151 82
-28 209 -59 215 -53 2 2 0 29 -4 61 l-7 58 -108 38 c-139 49 -296 126 -374
184 -57 42 -66 45 -105 40 -24 -3 -64 -1 -90 4 -43 9 -46 8 -38 -8z"/>
<path d="M2100 5256 c0 -4 9 -17 20 -28 11 -12 19 -27 17 -33 -2 -5 3 -15 11
-21 21 -16 7 -32 -23 -26 -26 5 -32 21 -14 39 7 7 0 12 -27 17 -20 4 -40 3
-43 -2 -13 -20 -41 -9 -41 16 0 22 -3 24 -31 18 -17 -3 -37 -6 -43 -7 -6 -1 0
-5 14 -9 21 -7 18 -8 -20 -10 l-45 -2 55 -10 c30 -5 63 -10 73 -11 9 -1 17 -4
17 -8 0 -11 51 -29 62 -23 6 4 8 3 5 -3 -4 -6 5 -15 20 -22 23 -10 29 -9 46 8
18 17 19 23 8 49 -12 29 -61 83 -61 68z"/>
<path d="M8355 5230 c-4 -17 -5 -34 -2 -36 2 -3 7 10 11 27 3 18 4 34 2 36 -2
3 -7 -10 -11 -27z"/>
<path d="M1719 5223 c-16 -18 -20 -27 -11 -30 6 -3 12 -10 12 -18 0 -7 7 -18
15 -25 10 -9 15 -9 15 -1 0 6 -4 11 -9 11 -5 0 -11 10 -15 23 -3 12 -6 24 -7
27 -1 3 8 10 21 16 12 7 18 14 12 18 -5 3 -20 -6 -33 -21z"/>
<path d="M8316 5232 c-2 -4 -1 -14 3 -21 6 -9 10 -7 14 8 5 20 -7 29 -17 13z"/>
<path d="M1870 5170 c0 -5 12 -10 28 -10 21 0 24 2 12 10 -20 13 -40 13 -40 0z"/>
<path d="M1923 5146 c-7 -8 -8 -18 -2 -27 7 -11 9 -11 9 4 0 9 5 17 10 17 6 0
10 5 10 10 0 14 -13 12 -27 -4z"/>
<path d="M1760 5136 c0 -7 6 -19 14 -25 11 -9 15 -8 20 5 10 26 7 34 -14 34
-11 0 -20 -6 -20 -14z"/>
<path d="M1957 5143 c-12 -12 -7 -32 6 -27 8 3 14 11 14 19 0 16 -9 19 -20 8z"/>
<path d="M2000 5130 c8 -5 24 -10 34 -10 26 0 18 6 -19 14 -22 5 -26 4 -15 -4z"/>
<path d="M2080 5106 c0 -2 7 -7 16 -10 8 -3 12 -2 9 4 -6 10 -25 14 -25 6z"/>
<path d="M2060 5069 c-22 -18 -22 -19 -3 -10 12 6 25 16 28 21 9 15 3 12 -25
-11z"/>
<path d="M1850 5060 c47 -23 98 -31 140 -21 19 5 29 9 23 10 -7 1 -13 8 -13
16 0 12 -13 15 -55 15 -30 0 -55 -4 -55 -10 0 -5 -7 -10 -16 -10 -8 0 -13 3
-11 8 3 4 -7 8 -21 9 -25 1 -25 0 8 -17z"/>
<path d="M3443 5073 c-71 -15 -108 -129 -58 -178 l24 -25 246 0 c232 0 246 1
265 20 38 38 20 154 -27 176 -19 8 -413 15 -450 7z"/>
<path d="M2370 5043 c-111 -17 -194 -54 -328 -146 -131 -90 -137 -94 -237
-128 -76 -27 -78 -28 -39 -29 56 0 122 -25 158 -58 15 -15 65 -83 111 -152
153 -233 313 -345 521 -365 l71 -7 6 173 c6 170 19 258 53 343 8 21 13 40 11
42 -7 8 -86 -20 -147 -52 -66 -35 -117 -76 -158 -128 -12 -16 -24 -27 -27 -25
-10 11 39 95 86 144 29 30 50 58 47 60 -3 3 -70 -1 -148 -10 -79 -8 -145 -13
-147 -11 -6 6 72 34 154 55 82 21 299 51 369 51 27 0 62 10 97 29 l55 29 -36
35 c-125 117 -307 176 -472 150z"/>
<path d="M4920 4746 c-225 -41 -396 -113 -565 -240 -241 -181 -401 -439 -462
-744 -24 -121 -24 -367 0 -482 57 -266 174 -478 366 -662 180 -172 385 -281
631 -334 116 -25 343 -25 455 -1 274 62 483 169 663 341 193 184 305 391 358
662 27 134 24 378 -5 507 -55 244 -156 423 -340 608 -173 172 -349 267 -621
335 -89 22 -379 28 -480 10z m373 -251 c404 -70 694 -354 778 -760 7 -33 12
-118 12 -190 -1 -155 -29 -281 -93 -413 -50 -106 -87 -158 -173 -249 -203
-213 -513 -327 -800 -293 -125 14 -208 40 -321 98 -207 106 -378 291 -463 499
-144 352 -73 754 180 1020 90 95 169 151 288 207 191 88 392 116 592 81z m914
-575 c55 -131 74 -215 80 -352 15 -334 -84 -609 -302 -837 -108 -113 -218
-194 -351 -258 -163 -78 -272 -104 -469 -110 -224 -7 -363 21 -546 113 -275
137 -489 395 -585 703 -18 58 -15 53 43 -59 171 -336 488 -580 836 -645 125
-23 318 -22 432 3 187 41 375 143 519 282 104 100 158 172 219 295 98 199 138
419 117 654 -9 100 -43 280 -65 346 -15 43 43 -65 72 -135z"/>
<path d="M4995 4400 c-250 -39 -475 -184 -601 -386 -217 -349 -161 -791 138
-1080 160 -155 331 -230 548 -241 235 -11 449 67 627 231 273 249 350 667 187
1011 -104 221 -303 384 -544 446 -87 23 -268 32 -355 19z m311 -130 c328 -84
547 -347 561 -675 5 -106 -13 -245 -35 -267 -9 -9 -197 81 -304 145 -42 26
-80 47 -85 47 -5 0 -55 -43 -113 -95 -123 -112 -209 -173 -340 -243 -150 -80
-372 -146 -400 -118 -21 21 -8 33 59 54 95 31 237 105 379 198 l121 79 -231
152 c-126 84 -237 153 -245 153 -18 0 -46 -16 -192 -112 -57 -37 -106 -68
-109 -68 -9 0 10 143 28 217 55 213 232 414 439 498 141 58 324 71 467 35z"/>
<path d="M2850 4381 c-19 -10 -45 -33 -58 -51 l-22 -33 2 -823 c3 -813 3 -823
24 -850 11 -15 33 -37 48 -48 27 -21 39 -21 657 -24 346 -1 629 0 629 4 0 3
-25 34 -56 67 -64 71 -148 194 -192 283 -41 82 -96 241 -118 344 -23 105 -26
429 -6 525 42 195 124 389 226 534 30 44 52 82 49 85 -4 3 -263 6 -577 6 -537
0 -573 -1 -606 -19z m119 -547 l30 -25 5 -492 c2 -271 5 -508 7 -527 4 -33 2
-35 -28 -38 -25 -3 -39 3 -58 24 l-25 27 0 522 c0 287 3 525 7 528 12 13 31 7
62 -19z"/>
<path d="M6220 4394 c0 -3 27 -47 61 -97 129 -194 195 -364 225 -582 54 -396
-48 -760 -302 -1073 l-74 -92 533 0 534 0 43 23 c30 16 51 37 67 67 l23 43 0
796 c0 767 -1 798 -20 839 -15 33 -29 47 -62 62 -41 19 -69 20 -535 20 -271 0
-493 -3 -493 -6z m701 -146 c22 -6 58 -27 80 -47 159 -135 64 -384 -147 -386
-79 0 -145 38 -189 109 -104 169 64 382 256 324z m277 -903 c2 -367 -1 -518
-9 -538 -14 -33 -45 -57 -74 -57 -37 0 -43 16 -28 73 10 39 13 159 13 513 l0
462 26 32 c18 20 34 30 48 28 l21 -3 3 -510z"/>
<path d="M6803 4130 c-39 -24 -53 -48 -53 -95 0 -47 13 -71 50 -90 100 -52
204 42 156 142 -10 22 -29 39 -51 49 -45 19 -64 18 -102 -6z"/>
<path d="M2802 2428 c-51 -51 62 -225 166 -256 29 -9 277 -12 932 -12 965 0
954 -1 802 50 -98 33 -254 110 -352 174 l-85 56 -725 0 c-551 0 -729 -3 -738
-12z"/>
<path d="M5925 2392 c-100 -66 -275 -153 -377 -187 -49 -16 -88 -33 -88 -38 0
-4 372 -6 828 -5 l827 3 41 22 c99 53 177 196 132 241 -9 9 -167 12 -653 11
l-640 0 -70 -47z"/>
<path d="M3605 1879 c-99 -34 -106 -47 -40 -78 l45 -21 1492 0 c1401 0 1495 1
1528 18 19 9 35 24 35 32 0 8 -24 27 -54 43 l-55 27 -1445 0 c-1431 -1 -1447
-1 -1506 -21z m1648 -86 c-34 -2 -93 -2 -130 0 -37 2 -9 3 62 3 72 0 102 -1
68 -3z m330 0 c-13 -2 -33 -2 -45 0 -13 2 -3 4 22 4 25 0 35 -2 23 -4z"/>
</g>
</svg>
